# xmcd
#
# Track frame offsets:
# 150
# 12192
# 26051
# 38187
# 49928
# 68150
# 83984
# 95939
# 110812
# 124928
# 138911
# 153691
# 165665
# 183055
# 194805
# 209217
# 224170
# 239707
#
# Disc length: 3380 seconds
#
#
# Revision: 0
# Processed by: cddbd v1.5.1PL0 Copyright (c) Steve Scherf et al.
# Submitted via: FreeRIP 2.90 
#
DISCID=220d3212
DTITLE=Dolly Parton - The ultimate Hit collection [CD1)
DYEAR=1998
DGENRE=Country
TTITLE0=Jolene
TTITLE1=Just because I'm a woman
TTITLE2=The bargain store
TTITLE3=Baby I'm burning
TTITLE4=Do I ever cross your mind?
TTITLE5=Heartbreaker
TTITLE6=Me and Little Andy
TTITLE7=Sweet summer lovin'
TTITLE8=I will always love you
TTITLE9=Coat of many colours
TTITLE10=It's all wrong, but it's all right
TTITLE11=Touch like a woman
TTITLE12=We had it all
TTITLE13=Hold Me
TTITLE14=Lonely comin' down
TTITLE15=But you know I love you
TTITLE16=Applejack
TTITLE17=Send me the pillow you dream on
EXTD=RCA VICTOR 1998
EXTT0=
EXTT1=
EXTT2=
EXTT3=
EXTT4=
EXTT5=
EXTT6=
EXTT7=
EXTT8=
EXTT9=
EXTT10=
EXTT11=
EXTT12=
EXTT13=
EXTT14=
EXTT15=
EXTT16=
EXTT17=
PLAYORDER=
